<?xml version="1.0" standalone="no"?>
<!DOCTYPE svg PUBLIC "-//W3C//DTD SVG 1.1//EN" 
  "http://www.w3.org/Graphics/SVG/1.1/DTD/svg11.dtd">
<svg width="724" height="438" version="1.1"
     xmlns="http://www.w3.org/2000/svg"><defs><marker id="arrowTip" markerWidth="10" markerHeight="10" refX="0" refY="5"><path fill="black" d="M 0,0 L 0,10 L 10,5 Z" /></marker><marker id="arrowMark" markerWidth="1" markerHeight="10" refX="0" refY="5"><path stroke="black" d="M 0,0 L 0,10 " /></marker><marker id="eventMark" markerWidth="24" markerHeight="24" markerUnits="userSpaceOnUse" refX="12" refY="12"><circle stroke="black" fill="white" stroke-width="2" cx="12" cy="12" r="12" /></marker></defs><path stroke="black" marker-end="url(#arrowTip)" marker-mid="url(#arrowMark)" marker-start="url(#arrowMark)" d="M 274,308 L 274,308 L 374,308 L 474,308 L 574,308 L 674,308 L 684,308 " /><text x="274" y="319" fill="black" font-size="22px" text-anchor="end" dominant-baseline="middle" transform="rotate(-45,274,319)">Beginning</text><text x="374" y="319" fill="black" font-size="22px" text-anchor="end" dominant-baseline="middle" transform="rotate(-45,374,319)">Kick-off</text><text x="474" y="319" fill="black" font-size="22px" text-anchor="end" dominant-baseline="middle" transform="rotate(-45,474,319)">The Journey</text><text x="574" y="319" fill="black" font-size="22px" text-anchor="end" dominant-baseline="middle" transform="rotate(-45,574,319)">Climäx</text><text x="674" y="319" fill="black" font-size="22px" text-anchor="end" dominant-baseline="middle" transform="rotate(-45,674,319)">Fin</text><rect x="139" y="-4" width="674" height="48" stroke="none" fill="#ccc" /><text x="128" y="32" fill="black" font-size="22px" text-anchor="end" dominant-baseline="middle" transform="rotate(-45,128,32)">Home</text><rect x="139" y="44" width="674" height="48" stroke="none" fill="#eee" /><text x="128" y="80" fill="black" font-size="22px" text-anchor="end" dominant-baseline="middle" transform="rotate(-45,128,80)">A Lonely Road</text><rect x="139" y="92" width="674" height="72" stroke="none" fill="#ccc" /><text x="128" y="128" fill="black" font-size="22px" text-anchor="end" dominant-baseline="middle" transform="rotate(-45,128,128)">A Dirty Street</text><rect x="139" y="164" width="674" height="72" stroke="none" fill="#eee" /><text x="128" y="200" fill="black" font-size="22px" text-anchor="end" dominant-baseline="middle" transform="rotate(-45,128,200)">The Valley</text><rect x="139" y="236" width="674" height="48" stroke="none" fill="#ccc" /><text x="128" y="272" fill="black" font-size="22px" text-anchor="end" dominant-baseline="middle" transform="rotate(-45,128,272)">Evil Fortress</text><path stroke="blue" stroke-width="22" fill="none" d="M 274,20 S 263,20 274,20 S 324,116 374,116 S 424,68 474,68 S 524,188 574,188 S 624,260 674,260 " /><path stroke="blue" stroke-width="2" fill="none" d="M 201,20 S 224,20 274,20 " /><path stroke="red" stroke-width="22" fill="none" d="M 374,140 S 363,140 374,140 S 424,116 474,116 S 524,212 574,212 " /><path stroke="red" stroke-width="2" fill="none" d="M 201,116 S 224,116 274,116 S 324,140 374,140 " /><path stroke="none" marker-end="url(#eventMark)" marker-mid="url(#eventMark)" fill="none" d="M 274,20 S 273,20 274,20 S 324,116 374,116 S 424,68 474,68 S 524,188 574,188 S 624,260 674,260 " /><rect x="151" y="10" width="100" height="20" stroke="none" fill="white" /><text x="201" y="20" fill="black" font-size="20px" dominant-baseline="middle" text-anchor="middle">Our Hero</text><path stroke="none" marker-end="url(#eventMark)" marker-mid="url(#eventMark)" fill="none" d="M 374,140 S 373,140 374,140 S 524,212 574,212 " /><rect x="151" y="106" width="100" height="20" stroke="none" fill="white" /><text x="201" y="116" fill="black" font-size="20px" dominant-baseline="middle" text-anchor="middle">Villain</text></svg>
